ffprobe version n2.6.1 Copyright (c) 2007-2015 the FFmpeg developers
  built with gcc 4.8 (Ubuntu 4.8.2-19ubuntu1)
  configuration: --prefix=/opt/ffmpeg --extra-cflags=-I/opt/ffmpeg/include --extra-ldflags=-L/opt/ffmpeg/lib --extra-libs=-ldl --enable-gpl --enable-libass --enable-libfdk-aac --enable-libfreetype --enable-libmp3lame --enable-libtheora --enable-libvorbis --enable-libvpx --enable-libx264 --enable-libx265 --enable-nonfree
  libavutil      54. 20.100 / 54. 20.100
  libavcodec     56. 26.100 / 56. 26.100
  libavformat    56. 25.101 / 56. 25.101
  libavdevice    56.  4.100 / 56.  4.100
  libavfilter     5. 11.102 /  5. 11.102
  libswscale      3.  1.101 /  3.  1.101
  libswresample   1.  1.100 /  1.  1.100
  libpostproc    53.  3.100 / 53.  3.100
Input #0, matroska,webm, from '/media/flaviopontes/Gigante/Filmes/Anime/The_Wind_Rises_2013_[1080p,BluRay,flac,x264]_-_THORA/The_Wind_Rises_2013_[1080p,BluRay,flac,x264]_-_THORA.mkv':
  Metadata:
    title           : The Wind Rises (2013)
    encoder         : libebml v1.2.1 + libmatroska v1.1.1
    creation_time   : 2014-07-20 14:31:29
  Duration: 02:06:31.13, start: 0.000000, bitrate: 8960 kb/s
    Stream #0:0(jpn): Video: h264 (High 10), yuv420p10le, 1920x1036, SAR 1:1 DAR 480:259, 23.98 fps, 23.98 tbr, 1k tbn, 47.95 tbc (default)
    Stream #0:1(jpn): Audio: flac, 48000 Hz, mono, s32 (24 bit) (default)
    Stream #0:2(eng): Audio: ac3, 48000 Hz, mono, fltp, 192 kb/s
    Stream #0:3(fre): Audio: ac3, 48000 Hz, mono, fltp, 192 kb/s
    Stream #0:4(kor): Audio: ac3, 48000 Hz, mono, fltp, 192 kb/s
    Stream #0:5(rus): Audio: ac3, 48000 Hz, mono, fltp, 192 kb/s
    Stream #0:6(eng): Subtitle: ass (default)
    Stream #0:7(fre): Subtitle: ass
    Stream #0:8(kor): Subtitle: dvd_subtitle, 1920x1080
    Stream #0:9(chi): Subtitle: dvd_subtitle, 1920x1080
    Stream #0:10(chi): Subtitle: dvd_subtitle, 1920x1080
    Stream #0:11: Attachment: ttf
    Metadata:
      filename        : RomanAntique.ttf
      mimetype        : application/x-truetype-font
    Stream #0:12: Attachment: ttf
    Metadata:
      filename        : MyriadPro-ArI_0.ttf
      mimetype        : application/x-truetype-font
    Stream #0:13: Attachment: ttf
    Metadata:
      filename        : MyriadPro-Ar_0.ttf
      mimetype        : application/x-truetype-font
    Stream #0:14: Attachment: ttf
    Metadata:
      filename        : MendozaRomanITCStd-BookIta.otf
      mimetype        : application/x-truetype-font
    Stream #0:15: Attachment: ttf
    Metadata:
      filename        : epsonthora.ttf
      mimetype        : application/x-truetype-font
    Stream #0:16: Attachment: ttf
    Metadata:
      filename        : CWBTRIAL.ttf
      mimetype        : application/x-truetype-font
    Stream #0:17: Attachment: ttf
    Metadata:
      filename        : CHUBBY.TTF
      mimetype        : application/x-truetype-font
    Stream #0:18: Attachment: ttf
    Metadata:
      filename        : Chopin Script.ttf
      mimetype        : application/x-truetype-font
    Stream #0:19: Attachment: ttf
    Metadata:
      filename        : 9SALERNO.TTF
      mimetype        : application/x-truetype-font
Unsupported codec with id 98304 for input stream 11
Unsupported codec with id 98304 for input stream 12
Unsupported codec with id 98304 for input stream 13
Unsupported codec with id 98304 for input stream 14
Unsupported codec with id 98304 for input stream 15
Unsupported codec with id 98304 for input stream 16
Unsupported codec with id 98304 for input stream 17
Unsupported codec with id 98304 for input stream 18
Unsupported codec with id 98304 for input stream 19
